<svg xmlns="http://www.w3.org/2000/svg" viewBox="0 0 88.66 82.05"><defs><style>.cls-1{fill:#0077b6;}</style></defs><g id="Layer_2" data-name="Layer 2"><g id="Layer_1-2" data-name="Layer 1"><path className="cls-1" d="M81.76,54.71A39.58,39.58,0,0,1,57.32,72.19V26.25H.58A48.6,48.6,0,0,0,0,33.73,48.38,48.38,0,0,0,17.44,70.89q1.77,1.47,3.68,2.78a47.5,47.5,0,0,0,6.36,3.66,48.33,48.33,0,0,0,61.18-17Zm-70.67-7.8A39.16,39.16,0,0,1,8.82,33.73c0-.38,0-.75,0-1.12h2.25Zm10,15.43a39.93,39.93,0,0,1-3.68-4V32.61h3.68ZM31.5,69.46a37.2,37.2,0,0,1-4-2.2V32.61h4ZM41,72.54c-1.07-.19-2.12-.44-3.15-.73V32.61H41Zm10,.59c-.87.07-1.75.1-2.64.1l-1,0V32.61H51Z"/><path className="cls-1" d="M70.17,4.23,66.25,0H28.48V5.19h0l9,9.69,4.24,4.57H79.48V14.27Zm-26.49,10L35.26,5.19H40.5l8.42,9.08Zm12,0L47.28,5.19h4.44l8.42,9.08Zm11.22,0L58.5,5.19h5.78l8.42,9.08Z"/></g></g></svg>