<svg
      xmlns="http://www.w3.org/2000/svg"
      viewBox="0 0 299.98 66.61"
      className="w-full h-auto"
    >
      <g id="Layer_2" data-name="Layer 2">
        <g id="Layer_1-2" data-name="Layer 1">
          <rect x="55.52" y="0.12" width="27.34" height="5.06" fill="#fff" />
          <polygon
            points="121.92 39.4 121.92 44.79 94.51 44.79 94.51 0.12 99.57 0.12 99.57 39.4 121.92 39.4"
            fill="#fff"
          />
          <rect x="55.52" y="19.99" width="27.34" height="5.06" fill="#fff" />
          <path
            d="M170.31,40,155.85,26.32h0A12.31,12.31,0,0,0,153,24.63a9.42,9.42,0,0,0-7.32,0,11.42,11.42,0,0,0-3,1.82l-.06.05-.07.06h0L128.4,40a2.88,2.88,0,0,0,3.95,4.19l14.17-13.38h0l.06-.05s0,0,.06-.06l.05,0a3.77,3.77,0,0,1,5.39.06h0l14.28,13.47a2.9,2.9,0,0,0,2,.78,2.88,2.88,0,0,0,2-5Z"
            fill="#fff"
          />
          <path
            d="M170.31,5,155.85,18.63h0A12,12,0,0,1,153,20.31a9.38,9.38,0,0,1-7.32,0,11.76,11.76,0,0,1-3-1.81l-.06-.06-.07-.06h0L128.4,5A2.89,2.89,0,0,1,128.28.9a2.88,2.88,0,0,1,4.07-.11l14.17,13.38h0l.06.05a.17.17,0,0,0,.06.06l.05.05a3.77,3.77,0,0,0,5.39-.07h0L166.36.8A2.88,2.88,0,1,1,170.31,5Z"
            fill="#fff"
          />
          <rect x="55.52" y="39.87" width="27.34" height="5.06" fill="#fff" />
          <path d="M140.73,15.12h0Z" fill="#fff" />
          <path
            d="M44.33,30a21.49,21.49,0,0,1-13.25,9.48V14.54H.31A27,27,0,0,0,0,18.59,26.13,26.13,0,0,0,9.46,38.74c.64.53,1.3,1,2,1.51a25.5,25.5,0,0,0,3.45,2A26.2,26.2,0,0,0,48.07,33ZM6,25.74a21.43,21.43,0,0,1-1.23-7.15c0-.2,0-.4,0-.61H6Zm5.44,8.37a21.61,21.61,0,0,1-2-2.18V18h2ZM17.08,38a20,20,0,0,1-2.18-1.19V18h2.18Zm5.16,1.68c-.58-.11-1.15-.24-1.71-.4V18h1.71Zm5.39.32c-.47,0-.95,0-1.43,0h-.52V18h1.95Z"
            fill="#fff"
          />
          <path
            d="M38.05,2.6,35.92.3H15.44V3.12h0l4.87,5.26,2.3,2.47H43.09V8ZM23.69,8,19.12,3.12H22L26.53,8ZM30.2,8,25.63,3.12H28L32.61,8Zm6.08,0L31.72,3.12h3.13L39.42,8Z"
            fill="#fff"
          />
          <text
            x="175.64"
            y="43.79"
            fontSize="39.21"
            fill="#0281db"
            fontFamily="Poppins, sans-serif"
            fontWeight="500"
          >
            LEDGER
          </text>
        </g>
      </g>
    </svg>